{"asset":{"version":"2.0","generator":"activeadmin-react-showcase"},"scene":0,"scenes":[{"nodes":[0,1,2]}],"nodes":[{"name":"fuselage","mesh":0,"scale":[4,1,1],"translation":[-2,0,0]},{"name":"port-wing","mesh":0,"scale":[2,1.8,1],"translation":[0,0,0]},{"name":"starboard-wing","mesh":0,"scale":[2,-1.8,1],"translation":[0,0,0]}],"meshes":[{"primitives":[{"attributes":{"POSITION":0},"indices":1,"material":0}]}],"materials":[{"name":"Titanium","doubleSided":true,"pbrMetallicRoughness":{"baseColorFactor":[0.16,0.48,0.52,1],"metallicFactor":0.8,"roughnessFactor":0.35}}],"buffers":[{"byteLength":44,"uri":"data:application/octet-stream;base64,"}],"bufferViews":[{"buffer":0,"byteLength":36,"byteOffset":0,"target":34962},{"buffer":0,"byteLength":6,"byteOffset":36,"target":34963}],"accessors":[{"bufferView":0,"byteOffset":0,"componentType":5126,"count":3,"max":[1,1,0],"min":[0,0,0],"type":"VEC3"},{"bufferView":1,"byteOffset":0,"componentType":5123,"count":3,"type":"SCALAR"}]}
